<svg width="150" height="150" viewBox="0 0 150 150" fill="none" xmlns="http://www.w3.org/2000/svg">
<g clip-path="url(#clip0_1_3)">
<path d="M119.444 75C119.444 99.5621 99.5621 119.444 75 119.444V75H119.444ZM75 30.5556V75H30.5556C30.5556 50.4379 50.4379 30.5556 75 30.5556Z" fill="#0166B1"/>
<path d="M75 30.5556C99.5621 30.5556 119.444 50.4379 119.444 75H75V30.5556ZM30.5555 75H75V119.444C50.4379 119.444 30.5555 99.5621 30.5555 75Z" fill="white"/>
<path d="M75 30.5556V32.9924C98.1608 32.9924 117.008 51.8348 117.008 75H119.444C119.444 50.4555 99.5445 30.5556 75 30.5556ZM75 117.008C51.8392 117.008 32.9924 98.1652 32.9924 75H30.5556C30.5556 99.5445 50.4555 119.444 75 119.444M75 0C33.5798 0 0 33.5798 0 75C0 116.42 33.5798 150 75 150C116.42 150 150 116.42 150 75C150 33.5798 116.42 0 75 0ZM145.123 75C145.123 113.726 113.73 145.123 75 145.123C36.2697 145.123 4.87712 113.726 4.87712 75C4.87712 36.2741 36.2741 4.87712 75 4.87712C113.726 4.87712 145.123 36.2741 145.123 75Z" fill="#6F6F6F"/>
<path d="M42.9492 38.8185C45.3458 36.3115 46.7027 33.415 44.3061 30.6499C43.002 29.1492 40.8124 28.821 38.9973 29.5604L38.8167 29.6304L38.874 29.4729C39.1427 28.7598 39.3145 26.4846 37.3628 24.9139C36.4112 24.1483 35.2173 23.8639 34.0102 23.9864C31.7589 24.2139 30.0275 25.7408 25.3135 30.9605C23.8905 32.5356 21.8198 35.0208 20.5774 36.6309L33.5255 48.8291C37.8166 44.1125 39.5656 42.3581 42.9492 38.8185ZM26.0536 35.8346C28.6617 32.6669 31.4329 29.7923 32.6885 28.6548C33.085 28.296 33.5167 27.9372 34.041 27.7972C34.8913 27.5653 35.768 28.1647 35.9663 29.031C36.1645 29.9017 35.6138 30.7286 35.0014 31.4112C33.6225 32.9556 28.5648 38.2103 28.5648 38.2103L26.0536 35.8346ZM31.1245 40.6123C31.1245 40.6123 36.05 35.4408 37.658 33.7869C38.2968 33.1306 38.7065 32.7325 39.1471 32.5181C39.7154 32.2425 40.3366 32.1856 40.8917 32.5531C41.438 32.9163 41.6891 33.5419 41.5526 34.1632C41.3896 34.9026 40.7816 35.607 40.2793 36.1452C39.6009 36.8671 33.759 43.0756 33.7502 43.0844L31.1245 40.6123ZM76.4803 24.2708L80.626 15.0477L80.8903 14.2295L80.8154 15.0827L81.2516 27.4078C82.7054 27.5434 84.2078 27.7447 85.688 27.9897L85.014 9.73616C82.9433 9.50865 80.8815 9.34676 78.8197 9.25926L74.7357 19.3267L74.5903 20.0749L74.4449 19.3267L70.3653 9.25926C68.3035 9.34676 66.2416 9.50865 64.171 9.73616L63.4969 27.9897C64.9772 27.7447 66.4795 27.5478 67.9334 27.4078L68.3696 15.0827L68.2947 14.2295L68.559 15.0477L72.7047 24.2708H76.4803ZM110.91 43.3512C111.928 44.4363 113.395 46.1864 114.219 47.2496L129.392 37.6853C128.634 36.7009 127.427 35.2045 126.524 34.1501L116.915 40.4592L116.259 41.0192L116.748 40.3104L120.99 31.9012L117.99 28.9217L109.518 33.135L108.804 33.6207L109.373 32.9688L115.73 23.4307C114.611 22.4857 113.536 21.6194 112.166 20.5693L102.535 35.6245C103.755 36.5565 105.364 37.9259 106.39 38.8579L115.457 34.1851L116.038 33.7607L115.611 34.3382L110.91 43.3512Z" fill="#6F6F6F"/>
</g>
<defs>
<clipPath id="clip0_1_3">
<rect width="150" height="150" fill="white"/>
</clipPath>
</defs>
</svg>
