<?xml version="1.0" standalone="no"?>
<!DOCTYPE svg PUBLIC "-//W3C//DTD SVG 20010904//EN"
 "http://www.w3.org/TR/2001/REC-SVG-20010904/DTD/svg10.dtd">
<svg version="1.0" xmlns="http://www.w3.org/2000/svg"
 width="646.000000pt" height="646.000000pt" viewBox="0 0 646.000000 646.000000"
 preserveAspectRatio="xMidYMid meet">
<metadata>
Created by potrace 1.14, written by Peter Selinger 2001-2017
</metadata>
<g transform="translate(0.000000,646.000000) scale(0.100000,-0.100000)"
fill="#000000" stroke="none">
<path d="M0 3225 l0 -2575 3230 0 3230 0 0 2575 0 2575 -3230 0 -3230 0 0
-2575z m6226 2466 l20 -1 0 -2467 -1 -2467 -3013 -1 c-2000 0 -3013 3 -3014
10 0 6 -2 1115 -3 2465 -2 2398 -1 2455 17 2460 15 4 5905 5 5994 1z"/>
<path d="M398 5530 l-23 -6 0 -687 c-1 -378 1 -688 5 -688 33 -7 1693 -2 1698
5 7 12 9 1376 2 1377 -24 4 -1664 3 -1682 -1z m669 -757 l1 -413 -79 0 -79 0
-1 38 c-2 97 3 634 6 687 2 33 4 66 4 73 1 6 8 12 16 12 8 0 15 3 15 8 0 4 26
7 58 7 l57 0 2 -412z m508 248 c-3 -91 -8 -229 -11 -306 -8 -166 -12 -268 -13
-312 -1 -24 -7 -33 -23 -39 -23 -7 -129 -6 -136 1 -2 2 -4 157 -3 344 0 314
-1 341 -17 342 -9 0 -58 1 -107 3 -50 1 -96 5 -103 9 -17 11 -15 82 3 97 8 7
46 15 83 18 37 2 68 5 69 6 1 0 60 1 132 2 l131 0 -5 -165z"/>
<path d="M2379 5530 c-4 -17 -3 -1363 1 -1373 4 -9 198 -12 853 -12 466 0 847
2 848 5 7 32 2 1373 -5 1378 -12 7 -1696 9 -1697 2z m769 -371 c45 -28 19 -77
-51 -94 -48 -12 -51 -31 -52 -280 0 -256 3 -268 67 -301 42 -22 53 -34 61 -65
16 -62 -75 -80 -169 -34 -65 32 -84 58 -99 134 -21 103 -26 530 -7 576 32 78
171 113 250 64z m232 16 c55 -8 127 -41 139 -63 17 -32 23 -108 27 -342 4
-249 -1 -294 -40 -338 -47 -54 -175 -89 -224 -63 -36 19 -29 64 15 100 21 17
43 31 51 31 29 0 40 61 40 229 1 264 -28 351 -118 351 -36 0 -56 80 -24 98 16
9 61 8 134 -3z"/>
<path d="M4399 5530 l-22 -5 1 -675 c0 -371 1 -682 1 -690 1 -13 104 -15 866
-15 858 0 865 0 866 20 1 24 1 1346 0 1360 -1 10 -1668 15 -1712 5z m507 -353
c19 -7 42 -45 51 -82 1 -5 4 -17 6 -25 16 -71 51 -151 85 -193 28 -36 27 -42
-2 -103 -13 -27 -33 -92 -45 -144 -12 -52 -29 -125 -38 -162 -17 -76 -33 -95
-85 -102 -44 -5 -66 9 -71 49 -3 26 0 49 18 145 3 14 8 38 10 54 3 16 8 33 12
38 3 5 7 55 8 111 4 102 -8 185 -41 297 -35 121 -34 126 27 125 24 0 54 -4 65
-8z m334 -15 c31 -38 38 -123 44 -520 4 -314 12 -289 -96 -284 l-63 3 0 407
c-1 246 3 410 9 414 21 15 88 3 106 -20z m318 14 c21 -7 23 -12 17 -54 -4 -26
-8 -60 -10 -77 -2 -16 -6 -39 -9 -51 -10 -49 -19 -133 -20 -189 -1 -72 6 -117
33 -216 11 -41 22 -85 25 -99 3 -14 11 -49 19 -77 l14 -53 -46 0 c-74 0 -108
36 -140 150 -48 164 -77 238 -107 268 -21 20 -18 36 22 116 19 41 37 80 38 87
14 81 42 183 52 193 13 14 76 15 112 2z"/>
<path d="M410 3930 l-36 -5 1 -697 c0 -383 3 -700 7 -704 9 -9 1686 -9 1695
-1 8 9 10 1386 2 1399 -7 10 -1599 18 -1669 8z m905 -200 c11 -9 39 -108 60
-210 2 -12 33 -126 80 -300 2 -8 18 -62 35 -120 17 -58 33 -116 36 -129 3 -13
9 -32 15 -43 5 -10 8 -18 5 -18 -3 0 1 -21 9 -47 18 -63 25 -126 17 -140 -20
-32 -121 -13 -141 26 -7 13 -43 143 -56 201 -2 8 -11 42 -20 75 -15 53 -59
214 -70 255 -2 8 -18 67 -35 130 -17 63 -33 126 -36 140 -3 14 -7 33 -10 42
-21 69 -23 136 -4 148 17 10 99 3 115 -10z m-145 -307 c7 -47 5 -265 -3 -308
-23 -124 -94 -333 -127 -373 -23 -28 -104 -46 -121 -26 -6 7 -8 22 -4 33 3 11
8 29 10 41 2 12 23 83 46 158 22 76 58 198 80 272 22 74 49 156 61 183 24 53
51 63 58 20z"/>
<path d="M2413 3932 c-18 -2 -34 -6 -34 -10 -7 -39 -2 -1395 5 -1400 18 -11
1688 -6 1694 6 9 14 8 1389 0 1398 -7 6 -1599 12 -1665 6z m585 -258 c12 -8
22 -22 23 -32 0 -9 3 -28 5 -42 2 -14 6 -200 8 -413 l4 -388 -23 -15 c-14 -9
-33 -13 -44 -9 -45 14 -52 95 -61 750 -2 186 -5 174 33 168 17 -2 42 -11 55
-19z m494 4 c4 -12 -12 -53 -97 -233 -64 -136 -135 -296 -171 -385 -19 -47
-39 -94 -44 -105 -5 -11 -22 -56 -39 -100 -17 -44 -31 -71 -32 -60 -15 195 -1
332 42 418 12 23 21 43 21 44 -1 2 12 33 30 70 17 38 32 70 33 73 3 13 62 121
92 170 54 85 91 120 129 120 18 0 34 -6 36 -12z m19 -205 c0 -16 3 -59 6 -98
3 -38 6 -187 7 -330 l1 -259 -48 -1 c-84 -2 -82 -7 -82 242 1 262 7 316 48
398 36 74 66 95 68 48z"/>
<path d="M4453 3920 c-28 -3 -54 -8 -58 -11 -8 -9 -17 -425 -18 -942 l-2 -447
35 0 c79 -1 491 1 880 5 228 2 504 4 613 4 l197 1 0 695 0 695 -132 1 c-517 4
-1472 3 -1515 -1z m575 -233 c14 -28 16 -47 27 -182 12 -166 14 -221 16 -410
2 -338 2 -339 -60 -337 -42 1 -59 16 -72 65 -16 62 -19 109 -25 520 l-5 378
53 -3 c47 -3 54 -6 66 -31z m469 20 c4 -4 -109 -228 -163 -324 -13 -24 -35
-62 -48 -86 l-25 -44 46 -79 c25 -43 59 -104 76 -134 16 -30 33 -59 38 -65 23
-31 97 -189 93 -200 -7 -18 -69 -24 -102 -9 -39 17 -65 51 -154 214 -58 105
-71 127 -96 160 -14 19 -34 43 -44 53 -29 29 -24 97 10 133 15 16 69 95 120
174 128 202 150 224 211 216 18 -3 35 -7 38 -9z"/>
<path d="M379 2305 c-1 0 -3 -312 -3 -692 l-2 -693 30 -1 c163 -4 1668 -1
1673 4 11 12 9 1368 -2 1375 -8 5 -441 7 -1696 7z m737 -196 c4 -7 9 -103 10
-213 2 -195 4 -640 2 -681 -1 -35 -18 -45 -74 -45 l-54 0 0 63 c-1 106 -9 409
-15 528 -9 207 -14 306 -16 315 -7 36 1 41 70 43 46 1 72 -2 77 -10z m356 -3
c71 -10 88 -17 95 -44 11 -45 -11 -51 -199 -49 -149 2 -171 4 -182 20 -20 26
-14 60 11 73 22 10 192 10 275 0z m30 -416 c50 -24 88 -79 94 -134 6 -45 5
-217 0 -241 -2 -11 -5 -26 -5 -33 -1 -19 -71 -83 -107 -98 -49 -21 -103 -27
-199 -25 -62 2 -75 10 -81 49 -7 40 16 52 106 57 38 2 78 10 89 17 22 14 46
71 37 87 -4 5 -3 12 2 15 7 4 7 54 -2 121 -2 17 -4 38 -5 47 -2 33 -50 53
-142 58 -97 6 -119 17 -111 56 7 40 47 51 171 49 90 -1 115 -5 153 -25z"/>
<path d="M2381 2300 c-3 -3 -6 -314 -6 -693 0 -603 2 -687 15 -688 70 -4 1690
-3 1691 1 4 18 3 1373 -1 1379 -6 7 -1688 9 -1699 1z m652 -249 c12 -12 12
-13 21 -291 3 -102 9 -264 12 -360 4 -96 7 -190 8 -209 l1 -35 -54 0 c-80 -1
-82 4 -87 236 -3 106 -6 220 -8 253 -3 33 -7 112 -11 175 -3 63 -8 142 -10
175 -2 33 1 62 6 66 16 10 110 2 122 -10z m407 10 c35 -2 50 -14 55 -44 8 -43
-26 -57 -136 -59 -157 -1 -207 4 -224 22 -13 15 -14 55 0 68 14 14 159 20 305
13z m-70 -400 c25 -2 40 -16 45 -44 7 -33 -17 -57 -58 -58 -128 -3 -200 0
-215 9 -16 11 -24 53 -13 71 14 22 108 31 241 22z m88 -405 c17 -4 32 -11 33
-14 0 -4 2 -16 4 -27 5 -23 -20 -53 -43 -54 -253 -4 -294 -2 -313 15 -17 15
-20 56 -5 71 17 17 257 23 324 9z"/>
<path d="M4379 2290 c-4 -88 0 -1362 4 -1367 11 -11 1727 -9 1728 2 5 66 0
1367 -5 1372 -4 4 -394 8 -867 8 -757 0 -859 -2 -860 -15z m824 -220 c24 -19
28 -43 12 -69 -3 -6 -29 -17 -58 -25 -63 -19 -69 -23 -84 -58 -13 -29 -60 -48
-100 -40 -74 14 13 159 118 196 59 20 82 20 112 -4z m184 -7 c89 -57 114 -99
117 -197 4 -90 -5 -118 -48 -166 l-35 -39 43 -43 c50 -50 69 -112 65 -220 -4
-125 -45 -202 -121 -227 -74 -24 -135 -13 -145 27 -8 35 7 55 53 70 22 7 45
22 52 33 22 34 24 197 4 239 -21 42 -71 70 -129 70 -49 0 -93 17 -93 37 0 23
37 52 82 63 24 6 56 14 73 18 40 10 55 44 51 118 -2 56 -7 67 -44 111 -70 84
-67 135 8 128 22 -3 52 -12 67 -22z m-345 -742 c40 -34 82 -56 125 -65 104
-23 32 -106 -80 -93 -84 10 -147 67 -147 134 0 59 49 71 102 24z"/>
</g>
</svg>
