<?xml version="1.0" standalone="no"?>
<!DOCTYPE svg PUBLIC "-//W3C//DTD SVG 20010904//EN"
 "http://www.w3.org/TR/2001/REC-SVG-20010904/DTD/svg10.dtd">
<svg version="1.0" xmlns="http://www.w3.org/2000/svg"
 width="242.000000pt" height="193.000000pt" viewBox="0 0 242.000000 193.000000"
 preserveAspectRatio="xMidYMid meet">

<g transform="translate(0.000000,193.000000) scale(0.100000,-0.100000)"
fill="#ff3f3d" stroke="none">
<path d="M0 965 l0 -965 1210 0 1210 0 0 965 0 965 -1210 0 -1210 0 0 -965z
m2340 0 l0 -925 -1130 0 -1130 0 0 925 0 925 1130 0 1130 0 0 -925z"/>
<path d="M140 1570 l0 -260 320 0 320 0 0 260 0 260 -320 0 -320 0 0 -260z
m260 -25 l0 -155 -30 0 -30 0 0 148 c0 82 3 152 7 155 3 4 17 7 30 7 l23 0 0
-155z m187 3 c-4 -84 -6 -154 -7 -155 0 -2 -13 -3 -30 -3 l-30 0 0 130 0 130
-45 0 c-37 0 -45 3 -45 18 0 28 5 30 87 31 l75 1 -5 -152z"/>
<path d="M890 1570 l0 -260 320 0 320 0 0 260 0 260 -320 0 -320 0 0 -260z
m298 109 c2 -11 -6 -19 -22 -23 -26 -6 -26 -8 -26 -106 0 -97 1 -101 25 -112
14 -6 25 -19 25 -30 0 -25 -50 -24 -81 1 -22 18 -24 28 -27 136 -4 101 -2 119
14 136 22 25 87 23 92 -2z m129 -5 c13 -18 19 -197 7 -240 -6 -24 -42 -44 -79
-44 -34 0 -33 33 0 48 24 11 25 15 25 101 0 92 -11 121 -46 121 -8 0 -14 10
-14 21 0 20 4 21 47 16 29 -3 52 -12 60 -23z"/>
<path d="M1640 1570 l0 -260 325 0 325 0 0 260 0 260 -325 0 -325 0 0 -260z
m220 83 c6 -27 19 -56 28 -66 14 -15 14 -21 3 -39 -7 -11 -18 -50 -25 -87 -11
-61 -14 -66 -39 -69 -32 -4 -34 9 -13 103 12 59 8 104 -18 183 -6 19 -4 22 22
22 27 0 31 -4 42 -47z m114 1 c3 -26 6 -96 6 -155 l0 -109 -30 0 -30 0 0 155
0 155 24 0 c20 0 24 -6 30 -46z m116 36 c0 -5 -5 -40 -11 -77 -10 -60 -9 -78
9 -145 l20 -78 -24 0 c-26 0 -35 14 -54 85 -7 28 -20 58 -28 67 -13 15 -13 20
1 41 9 13 19 42 23 63 3 21 9 42 11 47 6 11 53 9 53 -3z"/>
<path d="M140 965 l0 -265 320 0 320 0 0 265 0 265 -320 0 -320 0 0 -265z
m369 137 c6 -31 29 -116 50 -187 22 -72 36 -134 31 -138 -14 -16 -55 -3 -58
18 -2 11 -21 83 -42 160 -58 212 -57 205 -22 205 28 0 30 -3 41 -58z m-67
-118 c1 -38 -8 -86 -24 -134 -22 -66 -28 -75 -52 -78 -31 -4 -31 -5 -6 77 11
36 30 99 41 139 25 86 41 84 41 -4z"/>
<path d="M890 965 l0 -265 320 0 320 0 0 265 0 265 -320 0 -320 0 0 -265z
m248 10 c1 -87 0 -165 -2 -171 -3 -7 -13 -10 -23 -8 -16 5 -18 21 -21 175 l-3
171 23 -4 c23 -3 23 -4 26 -163z m172 158 c0 -4 -20 -48 -44 -98 -24 -49 -56
-124 -72 -165 l-29 -75 -3 59 c-2 47 2 72 24 120 47 108 84 166 105 166 10 0
19 -3 19 -7z m10 -198 l0 -135 -25 0 c-25 0 -25 0 -25 100 0 72 5 109 17 135
9 19 20 35 25 35 4 0 8 -61 8 -135z"/>
<path d="M1647 1223 c-4 -3 -7 -123 -7 -265 l0 -258 323 2 322 3 0 260 0 260
-316 3 c-173 1 -318 -1 -322 -5z m246 -140 c4 -38 7 -119 7 -180 1 -113 1
-113 -23 -113 -21 0 -25 6 -31 46 -3 26 -6 107 -6 180 l0 134 24 0 c22 0 24
-5 29 -67z m167 62 c0 -3 -20 -42 -44 -88 l-45 -82 46 -80 c61 -107 60 -105
27 -105 -26 0 -34 9 -72 80 -24 44 -47 80 -52 80 -12 0 -14 50 -2 50 4 0 27
34 52 75 34 57 50 74 68 75 12 0 22 -2 22 -5z"/>
<path d="M140 360 l0 -260 320 0 320 0 0 260 0 260 -320 0 -320 0 0 -260z
m282 65 c4 -249 6 -230 -22 -230 l-25 0 -2 115 c-2 63 -5 143 -7 178 l-4 62
29 0 29 0 2 -125z m166 103 c3 -16 -6 -18 -72 -18 -70 0 -76 2 -76 20 0 19 5
21 72 18 60 -2 73 -6 76 -20z m-10 -148 c18 -17 22 -32 22 -85 0 -57 -3 -66
-26 -84 -19 -15 -41 -21 -75 -21 -42 0 -49 3 -49 20 0 15 7 20 29 20 54 0 61
8 61 65 0 58 -7 65 -66 65 -22 0 -34 5 -34 13 0 22 11 27 65 27 38 0 57 -5 73
-20z"/>
<path d="M890 360 l0 -260 320 0 320 0 0 260 0 260 -320 0 -320 0 0 -260z
m250 163 c1 -5 3 -81 6 -170 l6 -163 -26 0 c-25 0 -26 2 -26 63 0 35 -3 112
-7 170 l-6 107 26 0 c15 0 27 -3 27 -7z m170 -13 c0 -18 -7 -20 -70 -20 -63 0
-70 2 -70 20 0 18 7 20 70 20 63 0 70 -2 70 -20z m-30 -150 c0 -18 -7 -20 -55
-20 -48 0 -55 2 -55 20 0 18 7 20 55 20 48 0 55 -2 55 -20z m30 -150 c0 -18
-7 -20 -70 -20 -63 0 -70 2 -70 20 0 18 7 20 70 20 63 0 70 -2 70 -20z"/>
<path d="M1640 360 l0 -260 325 0 325 0 0 260 0 260 -325 0 -325 0 0 -260z
m318 159 c2 -11 -7 -18 -28 -22 -18 -4 -30 -13 -30 -22 0 -9 -9 -15 -26 -15
-22 0 -24 3 -19 23 15 49 95 78 103 36z m78 -2 c21 -19 27 -32 27 -67 0 -30
-6 -47 -19 -57 -17 -13 -17 -14 4 -29 31 -21 32 -124 2 -154 -27 -27 -80 -27
-80 -1 0 13 8 21 23 23 19 3 22 10 25 53 4 56 -12 75 -61 75 -43 0 -33 33 13
40 31 4 35 9 38 37 2 22 -3 38 -17 52 -46 46 -6 71 45 28z m-105 -289 c37 -5
30 -32 -9 -36 -38 -4 -72 20 -72 49 0 25 22 30 41 9 9 -10 27 -20 40 -22z"/>
</g>
</svg>
