<svg width="893" height="150" viewBox="0 0 893 150" fill="none" xmlns="http://www.w3.org/2000/svg">
<path d="M615.373 79.0956L594.314 83.9163C591.016 70.9765 583.573 64.5067 571.987 64.5067C563.91 64.5067 557.779 67.6149 553.592 73.831C549.575 79.7511 547.566 88.2719 547.566 99.3932C547.566 121.086 555.791 131.933 572.241 131.933C585.476 131.933 593.109 124.448 595.139 109.479L616.578 112.206C614.168 123.285 610.045 131.806 604.209 137.769C596.513 145.676 585.793 149.63 572.05 149.63C559.28 149.63 548.941 146.12 541.033 139.1C531.011 130.22 526 116.879 526 99.0761C526 82.8803 530.017 70.2155 538.052 61.0815C546.298 51.6938 557.884 47 572.811 47C587.358 47 598.374 51.3978 605.859 60.1935C609.876 64.9719 613.047 71.2726 615.373 79.0956ZM629.962 147.283V49.3469H651.148V129.903H701.067V147.283H629.962ZM709.376 49.3469H730.562V110.494C730.562 124.871 737.286 132.06 750.733 132.06C764.054 132.06 770.713 124.871 770.713 110.494V49.3469H791.898V109.098C791.898 121.953 788.348 131.954 781.243 139.1C774.307 146.12 764.075 149.63 750.544 149.63C736.631 149.63 726.165 145.824 719.144 138.213C712.633 131.151 709.376 121.446 709.376 109.098V49.3469ZM809.723 147.283V49.3469H856.788C866.219 49.3469 873.683 51.1018 879.178 54.6116C886.072 58.9671 889.518 65.5005 889.518 74.2115C889.518 84.1489 885.311 91.1473 876.896 95.2069C887.382 99.3932 892.627 106.941 892.627 117.851C892.627 137.473 879.158 147.283 852.221 147.283H809.723ZM830.529 130.664H852.602C859.833 130.664 864.885 129.459 867.761 127.049C870.13 125.061 871.314 121.869 871.314 117.471C871.314 112.185 869.432 108.57 865.668 106.624C862.792 105.144 858.437 104.404 852.602 104.404H830.529V130.664ZM830.529 87.9125H852.856C858.437 87.9125 862.412 87.0245 864.781 85.2484C867.232 83.4723 868.459 80.6813 868.459 76.8757C868.459 72.2664 866.578 69.1371 862.814 67.4879C860.53 66.473 857.212 65.9656 852.856 65.9656H830.529V87.9125Z" fill="black"/>
<path d="M0 150V47.3684H48.9124C58.7125 47.3684 66.469 49.2074 72.1821 52.8855C79.3453 57.4499 82.927 64.2964 82.927 73.4251C82.927 83.839 78.5543 91.1729 69.809 95.4271C80.7078 99.8142 86.1571 107.724 86.1571 119.157C86.1571 139.719 72.1601 150 44.1662 150H0ZM21.6216 132.585H44.5618C52.0765 132.585 57.3282 131.322 60.3166 128.796C62.7776 126.713 64.008 123.367 64.008 118.758C64.008 113.219 62.0524 109.43 58.1412 107.392C55.1528 105.841 50.6264 105.065 44.5618 105.065H21.6216V132.585ZM21.6216 87.7829H44.8254C50.6264 87.7829 54.7574 86.8523 57.2184 84.9911C59.7672 83.13 61.0417 80.2053 61.0417 76.2169C61.0417 71.3867 59.086 68.1074 55.1748 66.3792C52.8017 65.3157 49.3519 64.7839 44.8254 64.7839H21.6216V87.7829ZM101.648 150V47.3684H131.114L155.966 123.611L180.488 47.3684H209.295V150H188.465V76.8817L164.47 150H146.474L122.347 76.8817V150H101.648ZM242.386 150L219.051 47.3684H241.991L256.955 121.417L274.951 47.3684H296.705L314.107 121.417L329.467 47.3684H351.88L327.16 150H303.297L285.367 77.5463L266.447 150H242.386Z" fill="black"/>
<path d="M0 31.5185V0.737624H6.89318V12.5795H20.1637V0.737624H27.0569V31.5185H20.1637V18.0419H6.89318V31.5185H0ZM47.5302 0C52.4146 0 56.2258 1.43538 58.9638 4.30613C61.7018 7.17692 63.0709 11.1308 63.0709 16.1679C63.0709 21.1785 61.7018 25.1058 58.9638 27.9499C56.212 30.8207 52.4284 32.2561 47.6127 32.2561C43.1824 32.2561 39.6119 31.0733 36.9014 28.7076C33.6405 25.8766 32.0101 21.6968 32.0101 16.1679C32.0101 11.1042 33.3723 7.15031 36.0965 4.30613C38.8483 1.43538 42.6595 0 47.5302 0ZM47.5302 5.50228C44.8472 5.50228 42.7421 6.47913 41.2148 8.43284C39.7564 10.3201 39.0272 12.8918 39.0272 16.148C39.0272 19.3909 39.7564 21.9493 41.2148 23.8233C42.7283 25.7637 44.8128 26.7339 47.4683 26.7339C49.9174 26.7339 51.8848 25.9365 53.3708 24.3416C55.1595 22.441 56.0539 19.7099 56.0539 16.148C56.0539 12.8918 55.3109 10.3201 53.8249 8.43284C52.2839 6.47913 50.1856 5.50228 47.5302 5.50228ZM68.0242 31.5185V0.737624H83.3376C86.4059 0.737624 88.8343 1.28918 90.6228 2.39229C92.8656 3.76122 93.987 5.8146 93.987 8.55245C93.987 11.6757 92.6179 13.8753 89.8805 15.1512C93.2922 16.4669 94.9988 18.8393 94.9988 22.2683C94.9988 28.4351 90.6162 31.5185 81.8516 31.5185H68.0242ZM74.7936 26.2953H81.9758C84.3282 26.2953 85.9727 25.9166 86.9085 25.1589C87.6786 24.5343 88.0643 23.5309 88.0643 22.1487C88.0643 20.4873 87.4514 19.351 86.227 18.7397C85.2918 18.2745 83.8745 18.0419 81.9758 18.0419H74.7936V26.2953ZM74.7936 12.8586H82.0583C83.8745 12.8586 85.1676 12.5795 85.9384 12.0213C86.7362 11.4631 87.1351 10.5859 87.1351 9.38976C87.1351 7.94111 86.5228 6.95759 85.2984 6.43926C84.5554 6.12029 83.4756 5.9608 82.0583 5.9608H74.7936V12.8586ZM114.233 0C119.118 0 122.929 1.43538 125.667 4.30613C128.405 7.17692 129.774 11.1308 129.774 16.1679C129.774 21.1785 128.405 25.1058 125.667 27.9499C122.915 30.8207 119.131 32.2561 114.316 32.2561C109.885 32.2561 106.315 31.0733 103.605 28.7076C100.344 25.8766 98.713 21.6968 98.713 16.1679C98.713 11.1042 100.075 7.15031 102.8 4.30613C105.552 1.43538 109.363 0 114.233 0ZM114.233 5.50228C111.55 5.50228 109.445 6.47913 107.918 8.43284C106.46 10.3201 105.731 12.8918 105.731 16.148C105.731 19.3909 106.46 21.9493 107.918 23.8233C109.432 25.7637 111.516 26.7339 114.172 26.7339C116.621 26.7339 118.588 25.9365 120.074 24.3416C121.863 22.441 122.757 19.7099 122.757 16.148C122.757 12.8918 122.014 10.3201 120.528 8.43284C118.987 6.47913 116.889 5.50228 114.233 5.50228ZM162.672 10.0875L155.82 11.6026C154.746 7.5357 152.325 5.50228 148.555 5.50228C145.927 5.50228 143.932 6.47913 142.57 8.43284C141.263 10.2935 140.609 12.9716 140.609 16.4669C140.609 23.285 143.285 26.694 148.637 26.694C152.944 26.694 155.428 24.3416 156.088 19.6368L163.064 20.494C162.279 23.9761 160.938 26.6542 159.039 28.5281C156.535 31.0134 153.047 32.2561 148.575 32.2561C144.421 32.2561 141.056 31.153 138.483 28.9468C135.223 26.1558 133.592 21.9626 133.592 16.3673C133.592 11.277 134.899 7.29647 137.513 4.42575C140.196 1.47525 143.966 0 148.824 0C153.556 0 157.14 1.38222 159.576 4.14664C160.883 5.64848 161.915 7.62877 162.672 10.0875ZM194.021 31.5185H187.541V10.7454L174.271 31.5185H167.419V0.737624H173.899V21.5107L187.169 0.737624H194.021V31.5185ZM200.11 31.5185V0.737624H222.873V6.20003H207.003V12.8586H216.146C217.48 12.8586 218.801 13.0114 220.108 13.3171C222.103 13.7823 223.795 14.8455 225.185 16.5069C226.547 18.1283 227.228 20.0886 227.228 22.3879C227.228 24.727 226.52 26.6674 225.103 28.2091C223.052 30.4153 219.372 31.5185 214.061 31.5185H200.11ZM207.003 26.2953H214.185C216.552 26.2953 218.203 25.9166 219.138 25.1589C219.909 24.5343 220.294 23.5309 220.294 22.1487C220.294 20.4873 219.675 19.351 218.437 18.7397C217.515 18.2745 216.097 18.0419 214.185 18.0419H207.003V26.2953ZM258.661 31.5185H252.181V10.7454L238.91 31.5185H232.058V0.737624H238.538V21.5107L251.809 0.737624H258.661V31.5185ZM264.749 31.5185V0.737624H279.712C283.11 0.737624 285.766 1.60151 287.679 3.32928C289.591 5.08363 290.547 7.46929 290.547 10.4862C290.547 13.543 289.447 15.9818 287.245 17.8027C285.14 19.5437 282.347 20.4143 278.866 20.4143H271.56V31.5185H264.749ZM271.56 15.191H278.164C279.719 15.191 280.985 14.7791 281.961 13.9551C282.98 13.0779 283.489 11.9149 283.489 10.4663C283.489 9.03091 283.021 7.92114 282.085 7.13698C281.15 6.35288 279.87 5.9608 278.246 5.9608H271.56V15.191ZM322.784 10.0875L315.932 11.6026C314.859 7.5357 312.437 5.50228 308.668 5.50228C306.04 5.50228 304.045 6.47913 302.682 8.43284C301.375 10.2935 300.722 12.9716 300.722 16.4669C300.722 23.285 303.398 26.694 308.75 26.694C313.057 26.694 315.54 24.3416 316.201 19.6368L323.177 20.494C322.392 23.9761 321.051 26.6542 319.152 28.5281C316.648 31.0134 313.16 32.2561 308.688 32.2561C304.533 32.2561 301.169 31.153 298.596 28.9468C295.335 26.1558 293.704 21.9626 293.704 16.3673C293.704 11.277 295.012 7.29647 297.626 4.42575C300.309 1.47525 304.079 0 308.936 0C313.669 0 317.253 1.38222 319.688 4.14664C320.995 5.64848 322.027 7.62877 322.784 10.0875ZM327.531 31.5185V0.737624H334.424V12.2605H338.717L342.906 0.737624H349.882L344.599 14.9518L351.884 31.5185H344.599L338.428 17.5435H334.424V31.5185H327.531Z" fill="black"/>
<path fill-rule="evenodd" clip-rule="evenodd" d="M369.704 47H409.704L385.004 149.63H345L369.704 47Z" fill="#006FBA"/>
<path fill-rule="evenodd" clip-rule="evenodd" d="M424.704 47H464.704L440.004 149.63H400L424.704 47Z" fill="#01427C"/>
<path fill-rule="evenodd" clip-rule="evenodd" d="M480.704 47H520.704L496.004 149.63H456L480.704 47Z" fill="#EA3428"/>
<mask id="mask0_5_119" style="mask-type:alpha" maskUnits="userSpaceOnUse" x="328" y="0" width="216" height="41">
<rect x="328" width="216" height="41" fill="black"/>
</mask>
<g mask="url(#mask0_5_119)">
<path fill-rule="evenodd" clip-rule="evenodd" d="M396.704 -71H436.704L412.004 31.63H372L396.704 -71Z" fill="#006FBA"/>
<path fill-rule="evenodd" clip-rule="evenodd" d="M451.704 -71H491.704L467.004 31.63H427L451.704 -71Z" fill="#01427C"/>
<path fill-rule="evenodd" clip-rule="evenodd" d="M507.704 -71H547.704L523.004 31.63H483L507.704 -71Z" fill="#EA3428"/>
</g>
</svg>
